<svg xmlns="http://www.w3.org/2000/svg" viewBox="0 0 800 180" width="100%" height="100%">
  <defs>
    <!-- Dark background gradient matching ic_launcher_background.xml -->
    <linearGradient id="bgGrad" x1="0%" y1="0%" x2="100%" y2="100%">
      <stop offset="0%" stop-color="#0A0A0B"/>
      <stop offset="50%" stop-color="#121216"/>
      <stop offset="100%" stop-color="#08080A"/>
    </linearGradient>

    <!-- Subtle border stroke -->
    <linearGradient id="borderGrad" x1="0%" y1="0%" x2="100%" y2="100%">
      <stop offset="0%" stop-color="#2E3038" stop-opacity="0.8"/>
      <stop offset="50%" stop-color="#1E1E24" stop-opacity="0.4"/>
      <stop offset="100%" stop-color="#2E3038" stop-opacity="0.8"/>
    </linearGradient>

    <!-- Subtle white glow for cube edges -->
    <filter id="whiteGlow" x="-30%" y="-30%" width="160%" height="160%">
      <feGaussianBlur stdDeviation="3.5" result="blur"/>
      <feMerge>
        <feMergeNode in="blur"/>
        <feMergeNode in="SourceGraphic"/>
      </feMerge>
    </filter>

    <style>
      .title {
        font-family: 'JetBrains Mono', 'SF Pro Display', -apple-system, BlinkMacSystemFont, 'Segoe UI', Roboto, sans-serif;
        font-size: 46px;
        font-weight: 800;
        fill: #FFFFFF;
        letter-spacing: 6px;
      }
      .subtitle {
        font-family: 'JetBrains Mono', 'SF Pro Text', -apple-system, BlinkMacSystemFont, 'Segoe UI', Roboto, sans-serif;
        font-size: 13px;
        font-weight: 600;
        fill: #A1A1AA;
        letter-spacing: 3.5px;
      }
      .tags {
        font-family: 'JetBrains Mono', 'SF Pro Text', -apple-system, BlinkMacSystemFont, 'Segoe UI', Roboto, sans-serif;
        font-size: 11px;
        font-weight: 500;
        fill: #71717A;
        letter-spacing: 2px;
      }
    </style>
  </defs>

  <!-- Container Box -->
  <rect x="10" y="10" width="780" height="160" rx="24" fill="url(#bgGrad)" stroke="url(#borderGrad)" stroke-width="1.5"/>

  <!-- High-tech circular grid lines behind logo (from ic_launcher_background.xml) -->
  <g transform="translate(130, 90)">
    <circle cx="0" cy="0" r="62" fill="none" stroke="#222228" stroke-width="0.8" stroke-dasharray="4 4"/>
    <circle cx="0" cy="0" r="48" fill="none" stroke="#2A2A32" stroke-width="0.8"/>
    <circle cx="0" cy="0" r="32" fill="none" stroke="#1F1F24" stroke-width="0.8"/>
  </g>

  <!-- Isometric Black Cube with Crisp White Edges (Exact copy of ic_launcher_foreground.xml) -->
  <g transform="translate(130, 90) scale(1.6)">
    <!-- Base black shadow fill -->
    <path d="M 0,-28.8 L 26.16,-14.4 L 26.16,14.4 L 0,28.8 L -26.16,14.4 L -26.16,-14.4 Z" fill="#000000"/>

    <!-- Top Face (white translucency) -->
    <path d="M 0,0 L -26.16,-14.4 L 0,-28.8 L 26.16,-14.4 Z" fill="#FFFFFF" fill-opacity="0.15"/>
    
    <!-- Left Face (white translucency) -->
    <path d="M 0,0 L -26.16,-14.4 L -26.16,14.4 L 0,28.8 Z" fill="#FFFFFF" fill-opacity="0.08"/>
    
    <!-- Right Face (white translucency) -->
    <path d="M 0,0 L 26.16,-14.4 L 26.16,14.4 L 0,28.8 Z" fill="#FFFFFF" fill-opacity="0.11"/>

    <!-- Glow layer for outer wireframe -->
    <path d="M 0,-28.8 L 26.16,-14.4 L 26.16,14.4 L 0,28.8 L -26.16,14.4 L -26.16,-14.4 Z"
          fill="none" stroke="#FFFFFF" stroke-width="2.5" stroke-linejoin="round" stroke-opacity="0.4" filter="url(#whiteGlow)"/>

    <!-- Crisp Outer Hexagon Wireframe -->
    <path d="M 0,-28.8 L 26.16,-14.4 L 26.16,14.4 L 0,28.8 L -26.16,14.4 L -26.16,-14.4 Z"
          fill="none" stroke="#FFFFFF" stroke-width="3" stroke-linecap="round" stroke-linejoin="round"/>

    <!-- Three Internal Edges Meeting at Center -->
    <path d="M 0,0 L -26.16,-14.4" stroke="#FFFFFF" stroke-width="3" stroke-linecap="round" stroke-linejoin="round"/>
    <path d="M 0,0 L 26.16,-14.4" stroke="#FFFFFF" stroke-width="3" stroke-linecap="round" stroke-linejoin="round"/>
    <path d="M 0,0 L 0,28.8" stroke="#FFFFFF" stroke-width="3" stroke-linecap="round" stroke-linejoin="round"/>
  </g>

  <!-- Typography Banner Section -->
  <g transform="translate(240, 0)">
    <!-- Main Title -->
    <text x="0" y="82" class="title">ZHYPIX</text>

    <!-- Subtitle -->
    <text x="3" y="114" class="subtitle">AUTONOMOUS VOICE AI &amp; TERMINAL COMPANION</text>

    <!-- Subtle separator line -->
    <line x1="3" y1="130" x2="480" y2="130" stroke="#27272A" stroke-width="1"/>

    <!-- Feature tags -->
    <text x="3" y="148" class="tags">ANDROID 8.0+ // KOTLIN // JETPACK COMPOSE // PROOT LINUX</text>
  </g>
</svg>
